# xmcd
#
# Track frame offsets:
#	150
#	19003
#	32161
#	48141
#	65622
#	82911
#	100606
#	120854
#	140463
#	157722
#	174619
#	191487
#	204611
#	220753
#	239512
#	255722
#	274744
#	291643
#
# Disc length: 4086 seconds
#
# Revision: 3
# Processed by: cddbd v1.5.1PL2 Copyright (c) Steve Scherf et al.
# Submitted via: audiograbber 1.83.01
#
DISCID=f80ff412
DTITLE=Diverse - Country Hits Volume 2 CD2
DYEAR=2005
DGENRE=Country
TTITLE0=Youre Gonna miss me when i앐 gone
TTITLE1=Indian outlaw
TTITLE2=I didn앖 know my owen strength
TTITLE3=Friends in low places
TTITLE4=Baby, now that i았e found you
TTITLE5=Man! I feel like a woman
TTITLE6=How do i live
TTITLE7=How was i to know
TTITLE8=Hard Rock bottom of your heart
TTITLE9=The Dance
TTITLE10=It압 your love
TTITLE11=Xxx압 Ooo압 (an American girl)
TTITLE12=If tomorrow never comes
TTITLE13=You won앖 ever be lonely
TTITLE14=Not a woman too soon
TTITLE15=Whose bed have your boots been under
TTITLE16=I take my Chances
TTITLE17=This kiss
EXTD=
EXTT0=
EXTT1=
EXTT2=
EXTT3=
EXTT4=
EXTT5=
EXTT6=
EXTT7=
EXTT8=
EXTT9=
EXTT10=
EXTT11=
EXTT12=
EXTT13=
EXTT14=
EXTT15=
EXTT16=
EXTT17=
PLAYORDER=
